<svg width="112" height="108" viewBox="0 0 112 108" fill="none" xmlns="http://www.w3.org/2000/svg">
<path fill-rule="evenodd" clip-rule="evenodd" d="M70.129 8.30702C70.129 8.30702 59.1574 6.31522 62.5926 1.24012C66.0278 -3.83498 70.129 8.30702 70.129 8.30702Z" fill="#56E287"/>
<path d="M71.6817 11.1772C71.7007 11.2676 71.7007 11.2676 71.7102 11.3392C71.7143 11.3745 71.7752 11.1416 72.1258 10.5876C72.8618 9.42498 74.3331 7.95255 76.7303 6.19047L74.6345 3.3392C69.7259 6.9472 67.9633 9.73197 68.1947 11.7437C68.2119 11.8709 68.2119 11.8709 68.2335 11.9724L71.6817 11.1772Z" fill="#BD7575"/>
<path d="M95.5438 90.2358H10.616C8.66164 90.2358 7.07733 91.8202 7.07733 93.7745V104.39C7.07733 106.345 8.66164 107.929 10.616 107.929H95.5438C97.4982 107.929 99.0825 106.345 99.0825 104.39V93.7745C99.0825 91.8202 97.4982 90.2358 95.5438 90.2358Z" fill="#DAD71E"/>
<path d="M81.3892 70.7732H3.53866C1.58431 70.7732 0 72.3575 0 74.3119V86.6972C0 88.6515 1.58431 90.2358 3.53866 90.2358H81.3892C83.3435 90.2358 84.9278 88.6515 84.9278 86.6972V74.3119C84.9278 72.3575 83.3435 70.7732 81.3892 70.7732Z" fill="#4796E7"/>
<path d="M107.929 47.7719H19.4626C17.5083 47.7719 15.924 49.3562 15.924 51.3106V67.2345C15.924 69.1889 17.5083 70.7732 19.4626 70.7732H107.929C109.883 70.7732 111.468 69.1889 111.468 67.2345V51.3106C111.468 49.3562 109.883 47.7719 107.929 47.7719Z" fill="#71D293"/>
<path fill-rule="evenodd" clip-rule="evenodd" d="M72.5425 46.0026C76.3137 46.0026 88.4899 36.7826 88.4899 28.3093C88.4899 18.5375 84.107 10.616 74.3353 10.616C72.6524 10.616 71.1817 10.8509 69.9002 11.2899C68.6187 10.8509 67.1481 10.616 65.4652 10.616C55.6934 10.616 51.3105 18.5375 51.3105 28.3093C51.3105 36.9846 63.4868 46.0026 67.258 46.0026C68.1284 46.0026 69.0123 45.9397 69.9002 45.8183C70.7882 45.9397 71.6721 46.0026 72.5425 46.0026Z" fill="#F5413E"/>
<path d="M92.0052 47.7719V70.7732H95.5438V47.7719H92.0052Z" fill="#3FBC6B"/>
<path fill-rule="evenodd" clip-rule="evenodd" d="M30.0786 47.7719H44.2333V65.4652L37.1559 59.6848L30.0786 65.4652V47.7719Z" fill="#F7EE2D"/>
<path d="M19.4626 90.2358V107.929H23.0013V90.2358H19.4626Z" fill="#B8B618"/>
<path d="M28.3093 90.2358V107.929H31.848V90.2358H28.3093Z" fill="#B8B618"/>
<path d="M8.84668 74.3119V86.6972H12.3853V74.3119H8.84668Z" fill="white"/>
<path d="M14.1547 74.3119V86.6972H17.6933V74.3119H14.1547Z" fill="white"/>
<path d="M67.2346 90.2358V107.929H70.7732V90.2358H67.2346Z" fill="#B8B618"/>
<path d="M74.3119 70.7732V90.2358H77.8506V70.7732H74.3119Z" fill="#9ACCFF"/>
<path d="M35.3867 70.7732V90.2358H38.9253V70.7732H35.3867Z" fill="#9ACCFF"/>
<path d="M33.6173 100.852H65.4653V97.3132H33.6173V100.852Z" fill="white"/>
<path d="M40.6946 83.1585H72.5426V79.6199H40.6946V83.1585Z" fill="white"/>
</svg>
