<svg width="20" height="20" viewBox="0 0 20 20" fill="none" xmlns="http://www.w3.org/2000/svg">
<path d="M10 0C15.5228 0 20 4.47715 20 10C20 15.5228 15.5228 20 10 20C4.47715 20 0 15.5228 0 10C0 4.47715 4.47715 0 10 0ZM10 1.66667C5.39763 1.66667 1.66667 5.39763 1.66667 10C1.66667 14.6024 5.39763 18.3333 10 18.3333C14.6024 18.3333 18.3333 14.6024 18.3333 10C18.3333 5.39763 14.6024 1.66667 10 1.66667ZM10.2389 4.28571V5.40562C11.8956 5.53816 13.095 6.53216 13.148 8.03641H11.7697C11.6835 7.20145 11.0871 6.7177 10.2389 6.61168V9.375L10.557 9.45452C12.2998 9.85875 13.254 10.5744 13.254 11.9859C13.254 13.6094 11.9287 14.5306 10.2389 14.6498V15.7631H9.49009V14.6498C7.80692 14.5239 6.47496 13.5763 6.42857 11.9859H7.80029C7.91957 12.7612 8.4232 13.3311 9.49009 13.4438V10.5545L9.2184 10.4883C7.53523 10.0973 6.62737 9.34187 6.62737 7.99665C6.62737 6.51228 7.82017 5.53153 9.49009 5.40562V4.28571H10.2389ZM10.2389 10.7268V13.4504C11.3721 13.3643 11.8492 12.8275 11.8492 12.1184C11.8492 11.4359 11.4781 11.0317 10.2389 10.7268ZM9.49009 6.61168C8.53585 6.73096 8.03223 7.28097 8.03223 7.884C8.03223 8.48703 8.42983 8.93101 9.49009 9.19608V6.61168Z" fill="black"/>
</svg>
