<svg width="20" height="20" viewBox="0 0 20 20" fill="none" xmlns="http://www.w3.org/2000/svg">
<circle cx="12" cy="12" r="5" fill="#13CDC2" fill-opacity="0.3"/>
<path d="M8.33331 11.0417C8.67849 11.0417 8.95831 11.3215 8.95831 11.6667V13.3333C8.95831 13.6785 8.67849 13.9583 8.33331 13.9583C7.98813 13.9583 7.70831 13.6785 7.70831 13.3333V11.6667C7.70831 11.3215 7.98813 11.0417 8.33331 11.0417Z" fill="#303030"/>
<path d="M12.2916 11.6667C12.2916 11.3215 12.0118 11.0417 11.6666 11.0417C11.3215 11.0417 11.0416 11.3215 11.0416 11.6667V13.3333C11.0416 13.6785 11.3215 13.9583 11.6666 13.9583C12.0118 13.9583 12.2916 13.6785 12.2916 13.3333V11.6667Z" fill="#303030"/>
<path fill-rule="evenodd" clip-rule="evenodd" d="M8.04124 2.81248C8.21383 2.51355 8.11141 2.13131 7.81248 1.95872C7.51354 1.78613 7.1313 1.88855 6.95871 2.18748L5.29205 5.07423C5.26708 5.11748 5.24786 5.16247 5.23417 5.20832H4.99998C3.73433 5.20832 2.70831 6.23433 2.70831 7.49998C2.70831 8.21592 3.03662 8.85518 3.55089 9.27543L4.10667 13.096L4.47896 14.8403C4.70202 15.8854 5.55517 16.6792 6.61361 16.8265C8.86037 17.1391 11.1396 17.1391 13.3863 16.8265C14.4448 16.6792 15.2979 15.8854 15.521 14.8403L15.8933 13.096L16.4491 9.27543C16.9633 8.85518 17.2916 8.21592 17.2916 7.49998C17.2916 6.23433 16.2656 5.20832 15 5.20832H14.7658C14.7521 5.16247 14.7329 5.11748 14.7079 5.07423L13.0412 2.18748C12.8687 1.88855 12.4864 1.78613 12.1875 1.95872C11.8885 2.13131 11.7861 2.51355 11.9587 2.81248L13.3419 5.20832H6.65801L8.04124 2.81248ZM15.1112 9.789C15.0743 9.79076 15.0373 9.79165 15 9.79165H4.99998C4.96269 9.79165 4.92561 9.79076 4.88876 9.789L5.33773 12.8753L5.70143 14.5794C5.81474 15.1103 6.24817 15.5136 6.78588 15.5884C8.91834 15.8851 11.0816 15.8851 13.2141 15.5884C13.7518 15.5136 14.1852 15.1103 14.2985 14.5794L14.6622 12.8753L15.1112 9.789ZM3.95831 7.49998C3.95831 6.92469 4.42468 6.45832 4.99998 6.45832H15C15.5753 6.45832 16.0416 6.92469 16.0416 7.49998C16.0416 8.07528 15.5753 8.54165 15 8.54165H4.99998C4.42468 8.54165 3.95831 8.07528 3.95831 7.49998Z" fill="#303030"/>
</svg>
