<svg width="44" height="50" viewBox="0 0 44 50" fill="none" xmlns="http://www.w3.org/2000/svg">
<path d="M3.125 45.3125C3.125 46.5557 3.61886 47.748 4.49794 48.6271C5.37701 49.5061 6.5693 50 7.8125 50H35.9375C37.1807 50 38.373 49.5061 39.2521 48.6271C40.1311 47.748 40.625 46.5557 40.625 45.3125V12.5H3.125V45.3125ZM29.6875 20.3125C29.6875 19.8981 29.8521 19.5007 30.1451 19.2077C30.4382 18.9146 30.8356 18.75 31.25 18.75C31.6644 18.75 32.0618 18.9146 32.3548 19.2077C32.6479 19.5007 32.8125 19.8981 32.8125 20.3125V42.1875C32.8125 42.6019 32.6479 42.9993 32.3548 43.2924C32.0618 43.5854 31.6644 43.75 31.25 43.75C30.8356 43.75 30.4382 43.5854 30.1451 43.2924C29.8521 42.9993 29.6875 42.6019 29.6875 42.1875V20.3125ZM20.3125 20.3125C20.3125 19.8981 20.4771 19.5007 20.7701 19.2077C21.0632 18.9146 21.4606 18.75 21.875 18.75C22.2894 18.75 22.6868 18.9146 22.9798 19.2077C23.2729 19.5007 23.4375 19.8981 23.4375 20.3125V42.1875C23.4375 42.6019 23.2729 42.9993 22.9798 43.2924C22.6868 43.5854 22.2894 43.75 21.875 43.75C21.4606 43.75 21.0632 43.5854 20.7701 43.2924C20.4771 42.9993 20.3125 42.6019 20.3125 42.1875V20.3125ZM10.9375 20.3125C10.9375 19.8981 11.1021 19.5007 11.3951 19.2077C11.6882 18.9146 12.0856 18.75 12.5 18.75C12.9144 18.75 13.3118 18.9146 13.6049 19.2077C13.8979 19.5007 14.0625 19.8981 14.0625 20.3125V42.1875C14.0625 42.6019 13.8979 42.9993 13.6049 43.2924C13.3118 43.5854 12.9144 43.75 12.5 43.75C12.0856 43.75 11.6882 43.5854 11.3951 43.2924C11.1021 42.9993 10.9375 42.6019 10.9375 42.1875V20.3125ZM42.1875 3.12502H30.4687L29.5508 1.29884C29.3563 0.908429 29.0568 0.58002 28.6859 0.350562C28.3149 0.121105 27.8873 -0.0002957 27.4512 1.71218e-05H16.2891C15.8539 -0.00165578 15.427 0.119292 15.0574 0.349005C14.6878 0.578717 14.3904 0.907902 14.1992 1.29884L13.2812 3.12502H1.5625C1.1481 3.12502 0.750671 3.28964 0.457646 3.58266C0.16462 3.87569 0 4.27311 0 4.68752L0 7.81251C0 8.22691 0.16462 8.62434 0.457646 8.91737C0.750671 9.21039 1.1481 9.37501 1.5625 9.37501H42.1875C42.6019 9.37501 42.9993 9.21039 43.2923 8.91737C43.5854 8.62434 43.75 8.22691 43.75 7.81251V4.68752C43.75 4.27311 43.5854 3.87569 43.2923 3.58266C42.9993 3.28964 42.6019 3.12502 42.1875 3.12502Z" fill="#F10000"/>
</svg>
