<svg width="20" height="20" viewBox="0 0 20 20" fill="none" xmlns="http://www.w3.org/2000/svg">
<path d="M0.555556 19.4444H19.4444C19.5918 19.4444 19.7331 19.3859 19.8373 19.2817C19.9415 19.1775 20 19.0362 20 18.8889C20 18.7415 19.9415 18.6002 19.8373 18.4961C19.7331 18.3919 19.5918 18.3333 19.4444 18.3333H16.6667V4.44444C16.6667 4.2971 16.6081 4.15579 16.5039 4.05161C16.3998 3.94742 16.2585 3.88889 16.1111 3.88889H13.8889C13.7415 3.88889 13.6002 3.94742 13.4961 4.05161C13.3919 4.15579 13.3333 4.2971 13.3333 4.44444V18.3333H11.6667V11.1111C11.6667 10.9638 11.6081 10.8225 11.5039 10.7183C11.3998 10.6141 11.2585 10.5556 11.1111 10.5556H8.88889C8.74155 10.5556 8.60024 10.6141 8.49605 10.7183C8.39186 10.8225 8.33333 10.9638 8.33333 11.1111V18.3333H6.66667V7.77778C6.66667 7.63044 6.60814 7.48913 6.50395 7.38494C6.39976 7.28075 6.25845 7.22222 6.11111 7.22222H3.88889C3.74155 7.22222 3.60024 7.28075 3.49605 7.38494C3.39187 7.48913 3.33333 7.63044 3.33333 7.77778V18.3333H1.11111V0.555556C1.11111 0.408213 1.05258 0.266905 0.948393 0.162719C0.844206 0.0585317 0.702898 0 0.555556 0C0.408213 0 0.266905 0.0585317 0.162719 0.162719C0.0585317 0.266905 0 0.408213 0 0.555556V18.8889C0 19.0362 0.0585317 19.1775 0.162719 19.2817C0.266905 19.3859 0.408213 19.4444 0.555556 19.4444ZM14.4444 5H15.5556V18.3333H14.4444V5ZM9.44444 11.6667H10.5556V18.3333H9.44444V11.6667ZM4.44444 8.33333H5.55556V18.3333H4.44444V8.33333Z" fill="black"/>
</svg>
