<svg width="50" height="50" viewBox="0 0 50 50" fill="none" xmlns="http://www.w3.org/2000/svg">
<path d="M48.623 13.8703L44.1208 18.3724C43.6618 18.8314 42.9196 18.8314 42.4606 18.3724L31.6202 7.53209C31.1612 7.07308 31.1612 6.33086 31.6202 5.87185L36.1224 1.36969C37.9487 -0.456564 40.9175 -0.456564 42.7536 1.36969L48.623 7.2391C50.459 9.06536 50.459 12.0342 48.623 13.8703ZM27.7529 9.73922L2.10716 35.3849L0.0367502 47.2507C-0.246466 48.8524 1.15008 50.2391 2.75172 49.9657L14.6175 47.8855L40.2632 22.2398C40.7222 21.7808 40.7222 21.0386 40.2632 20.5796L29.4229 9.73922C28.9541 9.28022 28.2119 9.28022 27.7529 9.73922ZM12.1174 33.1876C11.5803 32.6504 11.5803 31.791 12.1174 31.2539L27.1571 16.2141C27.6943 15.677 28.5537 15.677 29.0908 16.2141C29.628 16.7513 29.628 17.6107 29.0908 18.1478L14.0511 33.1876C13.5139 33.7247 12.6545 33.7247 12.1174 33.1876ZM8.59183 41.4008H13.2796V44.9459L6.98043 46.0495L3.94318 43.0122L5.04675 36.7131H8.59183V41.4008Z" fill="#100BFA"/>
</svg>
