<svg width="20" height="20" viewBox="0 0 20 20" fill="none" xmlns="http://www.w3.org/2000/svg">
<circle cx="8" cy="6" r="5" fill="#79E210" fill-opacity="0.3"/>
<path fill-rule="evenodd" clip-rule="evenodd" d="M11.2981 4.61188C10.5727 3.91575 9.42724 3.91575 8.70176 4.61188L4.8464 8.31133C4.75194 8.40197 4.6884 8.52004 4.66479 8.64881C4.20301 11.167 4.16892 13.745 4.56396 16.2746L4.65773 16.875H7.13811V11.6989C7.13811 11.3537 7.41793 11.0739 7.76311 11.0739H12.2368C12.582 11.0739 12.8618 11.3537 12.8618 11.6989V16.875H15.3422L15.4359 16.2746C15.831 13.745 15.7969 11.167 15.3351 8.6488C15.3115 8.52004 15.248 8.40197 15.1535 8.31133L11.2981 4.61188ZM7.83631 3.70995C9.04543 2.54973 10.9545 2.54973 12.1636 3.70995L16.019 7.40939C16.3028 7.68172 16.4937 8.03646 16.5646 8.42335C17.0517 11.0797 17.0877 13.7992 16.671 16.4675L16.5203 17.432C16.458 17.8309 16.1145 18.125 15.7107 18.125H12.2368C11.8916 18.125 11.6118 17.8452 11.6118 17.5V12.3239H8.38811V17.5C8.38811 17.8452 8.10829 18.125 7.76311 18.125H4.28917C3.88543 18.125 3.54186 17.8309 3.47956 17.432L3.32893 16.4675C2.91222 13.7992 2.94818 11.0797 3.43529 8.42335C3.50623 8.03646 3.69713 7.68172 3.98094 7.40939L7.83631 3.70995Z" fill="#303030"/>
</svg>
