<svg width="70" height="70" viewBox="0 0 70 70" fill="none" xmlns="http://www.w3.org/2000/svg">
<path d="M61.9467 3.0781L47.5433 17.7749C49.3734 19.205 51.0226 20.853 52.4514 22.6842L67.1495 8.28087C68.5867 6.84361 68.5867 4.51413 67.1495 3.07687C65.7122 1.64084 63.3839 1.64084 61.9467 3.0781Z" stroke="black" stroke-width="2.45287" stroke-miterlimit="10" stroke-linecap="round" stroke-linejoin="round"/>
<path d="M52.4514 22.6842C51.0238 20.853 49.3734 19.205 47.5433 17.7749C42.7598 14.0429 36.7462 11.8116 30.208 11.8116C14.6285 11.8116 2 24.4413 2 40.0196C2 55.5979 14.6285 68.2276 30.208 68.2276C45.7875 68.2276 58.4159 55.5979 58.4159 40.0196C58.4159 33.4814 56.1858 27.4678 52.4514 22.6842Z" stroke="black" stroke-width="2.45287" stroke-miterlimit="10" stroke-linecap="round" stroke-linejoin="round"/>
<path d="M30.208 45.9985C33.5947 45.9985 36.3401 43.253 36.3401 39.8663C36.3401 36.4796 33.5947 33.7341 30.208 33.7341C26.8213 33.7341 24.0758 36.4796 24.0758 39.8663C24.0758 43.253 26.8213 45.9985 30.208 45.9985Z" stroke="black" stroke-width="2.45287" stroke-miterlimit="10" stroke-linecap="round" stroke-linejoin="round"/>
<path d="M43.9742 41.9203C43.8855 41.8772 43.7982 41.8341 43.7083 41.7957C42.9309 41.3838 42.4124 40.4627 42.4124 39.5225C42.4124 39.5214 42.3981 39.4951 42.3944 39.4866C42.2255 35.563 40.2218 32.1197 37.2096 29.9961C36.6515 29.5386 36.2695 28.8116 36.2695 28.0415C35.8167 25.1012 33.274 22.8495 30.2079 22.8495C27.4053 22.8495 25.0411 24.7311 24.3105 27.2989C24.2482 27.517 24.1655 27.8008 24.1464 28.0295C24.0866 28.7553 23.8075 29.3961 23.3092 29.844C20.0419 32.0478 17.8933 35.7822 17.8933 40.0196C17.8933 46.7926 23.3834 52.2839 30.1576 52.2839C31.8164 52.2839 33.3962 51.951 34.8405 51.3533C35.5736 51.1521 36.3773 51.2947 37.0036 51.7893C37.0779 51.8479 37.1569 51.9019 37.2252 51.9701L37.2144 51.9834C38.2899 52.9306 39.6984 53.5104 41.2458 53.5104C44.6329 53.5104 47.378 50.764 47.378 47.3782C47.378 44.9769 45.9839 42.9241 43.9742 41.9203Z" stroke="black" stroke-width="2.45287" stroke-miterlimit="10" stroke-linecap="round" stroke-linejoin="round"/>
</svg>
