<svg width="20" height="20" viewBox="0 0 20 20" fill="none" xmlns="http://www.w3.org/2000/svg">
<circle cx="6" cy="13" r="5" fill="#FF00DB" fill-opacity="0.3"/>
<path fill-rule="evenodd" clip-rule="evenodd" d="M9.66859 15.53C9.77523 15.594 9.88923 15.6223 10 15.6209C10.1108 15.6223 10.2248 15.594 10.3314 15.53L11.2775 14.9624C13.1329 13.8491 15.4021 13.6673 17.4111 14.4709C18.1522 14.7674 18.9584 14.2216 18.9584 13.4234V3.70763C18.9584 3.22601 18.6651 2.7929 18.218 2.61403C15.6304 1.579 12.7077 1.81319 10.318 3.24704L10 3.4378L9.68208 3.24704C7.29233 1.81319 4.36966 1.579 1.78209 2.61403C1.33491 2.7929 1.04169 3.22601 1.04169 3.70763V13.4234C1.04169 14.2216 1.84785 14.7674 2.58895 14.4709C4.59795 13.6673 6.86712 13.8491 8.72253 14.9624L9.66859 15.53ZM2.29169 3.75665V13.2456C4.62151 12.3723 7.22652 12.607 9.36565 13.8905L9.37502 13.8961V4.52054L9.03896 4.3189C6.99814 3.09441 4.5053 2.88746 2.29169 3.75665ZM10.6344 13.8905L10.625 13.8961V4.52054L10.9611 4.3189C13.0019 3.09441 15.4947 2.88746 17.7084 3.75665V13.2456C15.3785 12.3723 12.7735 12.607 10.6344 13.8905Z" fill="#303030"/>
<path d="M7.72932 15.8685C6.04277 14.8847 3.95727 14.8847 2.27072 15.8685L2.1851 15.9185C1.88694 16.0924 1.78623 16.4751 1.96016 16.7733C2.13408 17.0714 2.51678 17.1721 2.81494 16.9982L2.90056 16.9483C4.1979 16.1915 5.80214 16.1915 7.09948 16.9483L8.00553 17.4768C9.23801 18.1957 10.762 18.1957 11.9945 17.4768L12.9006 16.9483C14.1979 16.1915 15.8021 16.1915 17.0995 16.9483L17.1851 16.9982C17.4833 17.1721 17.866 17.0714 18.0399 16.7733C18.2138 16.4751 18.1131 16.0924 17.8149 15.9185L17.7293 15.8685C16.0428 14.8847 13.9573 14.8847 12.2707 15.8685L11.3647 16.3971C10.5214 16.889 9.47864 16.889 8.63537 16.3971L7.72932 15.8685Z" fill="#303030"/>
</svg>
